<?xml version="1.0" standalone="no"?>
<!DOCTYPE svg PUBLIC "-//W3C//DTD SVG 20010904//EN"
 "http://www.w3.org/TR/2001/REC-SVG-20010904/DTD/svg10.dtd">
<svg version="1.0" xmlns="http://www.w3.org/2000/svg"
 width="600.000000pt" height="600.000000pt" viewBox="0 0 600.000000 600.000000"
 preserveAspectRatio="xMidYMid meet">
<metadata>
Created by potrace 1.14, written by Peter Selinger 2001-2017
</metadata>
<g transform="translate(0.000000,600.000000) scale(0.100000,-0.100000)"
fill="#000000" stroke="none">
<path d="M0 3000 l0 -3000 3000 0 3000 0 0 3000 0 3000 -3000 0 -3000 0 0
-3000z m3611 2591 l0 -151 154 0 155 0 0 -155 0 -155 -155 0 -155 0 0 -305 0
-305 155 0 155 0 0 -150 0 -150 149 0 c83 0 152 -4 155 -9 3 -5 3 -213 -1
-462 l-6 -454 -301 3 -301 2 -3 453 -2 454 -231 6 c-127 4 -332 4 -455 0
l-224 -6 0 156 0 157 -149 0 c-132 0 -150 2 -153 17 -2 9 -2 216 0 460 l2 443
150 0 150 0 0 153 0 152 456 -2 456 -2 -1 -150z m-1519 -1683 l-4 -308 306 0
c168 0 306 3 306 8 0 4 2 72 3 152 l2 145 285 0 c157 0 291 -2 298 -4 9 -2 12
-71 12 -302 l0 -299 -150 0 -150 0 0 -150 0 -150 -606 2 -606 3 -1 145 -2 145
-150 0 -150 0 -5 305 c-3 168 -4 376 -2 463 l3 157 307 -2 307 -3 -3 -307z
m1522 -1363 l1 -150 153 -3 152 -3 0 -459 0 -460 -310 0 -310 0 0 305 0 305
-150 0 -150 0 0 -304 0 -305 -146 -3 c-80 -2 -148 -1 -150 1 -2 2 -4 141 -4
308 l0 303 -150 0 -150 0 0 310 0 309 606 -2 606 -2 2 -150z m-614 -1835 l0
-160 -300 0 -300 0 0 155 0 155 298 3 c163 1 298 3 300 5 1 1 2 -70 2 -158z
m1226 103 c-3 -25 -6 -95 -6 -154 l0 -109 -457 2 -458 3 -3 145 c-1 79 -1 149
1 155 3 7 152 9 467 7 l463 -2 -7 -47z"/>
<path d="M2710 5280 l0 -151 143 3 142 3 3 148 3 147 -146 0 -145 0 0 -150z"/>
</g>
</svg>
